<svg width="70" height="70" viewBox="0 0 80 80" fill="none" xmlns="http://www.w3.org/2000/svg">
<path d="M21.9566 60.7547L31.5152 51.1961C32.48 50.2312 32.48 48.6667 31.5152 47.7019C30.5503 46.737 28.9858 46.737 28.021 47.7019L18.4624 57.2605L8.90377 47.7019C7.93892 46.737 6.37439 46.737 5.40955 47.7019C4.4447 48.6667 4.4447 50.2312 5.40955 51.1961L14.9681 60.7547L5.40955 70.3133C4.4447 71.2781 4.4447 72.8426 5.40955 73.8075C6.37439 74.7723 7.93892 74.7723 8.90377 73.8075L18.4624 64.2489L28.021 73.8075C28.9858 74.7723 30.5503 74.7723 31.5152 73.8075C32.48 72.8426 32.48 71.2781 31.5152 70.3133L21.9566 60.7547Z" fill="#E94141"/>
<path d="M61.5373 46.9781C53.9292 46.9781 47.7606 53.1467 47.7606 60.7548C47.7606 68.363 53.9292 74.5316 61.5373 74.5316C69.1455 74.5316 75.3141 68.363 75.3141 60.7548C75.3141 53.1467 69.1455 46.9781 61.5373 46.9781ZM61.5373 70.1641C56.3412 70.1641 52.128 65.9508 52.128 60.7547C52.128 55.5586 56.3412 51.3453 61.5373 51.3453C66.7334 51.3453 70.9467 55.5586 70.9467 60.7547C70.9467 65.9508 66.7334 70.1641 61.5373 70.1641Z" fill="#0086F4"/>
<path d="M58.0434 19.2453L48.4848 9.68672C47.52 8.72188 47.52 7.15735 48.4848 6.19251C49.4497 5.22766 51.0142 5.22766 51.979 6.19251L61.5376 15.7511L71.0962 6.19251C72.0611 5.22766 73.6256 5.22766 74.5904 6.19251C75.5553 7.15735 75.5553 8.72188 74.5904 9.68672L65.0319 19.2453L74.5904 28.8039C75.5553 29.7688 75.5553 31.3333 74.5904 32.2981C73.6256 33.263 72.0611 33.263 71.0962 32.2981L61.5376 22.7395L51.979 32.2981C51.0142 33.263 49.4497 33.263 48.4848 32.2981C47.52 31.3333 47.52 29.7688 48.4848 28.8039L58.0434 19.2453Z" fill="#E94141"/>
<path d="M4.68594 19.2453C4.68594 26.8534 10.8545 33.022 18.4627 33.022C26.0708 33.022 32.2394 26.8534 32.2394 19.2453C32.2394 11.6372 26.0708 5.4686 18.4627 5.4686C10.8545 5.4686 4.68594 11.6372 4.68594 19.2453ZM9.05329 19.2453C9.05329 14.0492 13.2666 9.83594 18.4627 9.83594C23.6588 9.83594 27.872 14.0492 27.872 19.2453C27.872 24.4414 23.6588 28.6547 18.4627 28.6547C13.2666 28.6545 9.05329 24.4414 9.05329 19.2453Z" fill="#0086F4"/>
<path d="M78.8281 38.8281H41.1719V1.17188C41.1719 0.524531 40.6473 0 40 0C39.3528 0 38.8281 0.524531 38.8281 1.17188V38.8281H1.17188C0.524687 38.8281 0 39.3527 0 40C0 40.6473 0.524687 41.1719 1.17188 41.1719H38.8281V78.8281C38.8281 79.4755 39.3528 80 40 80C40.6473 80 41.1719 79.4755 41.1719 78.8281V41.1719H78.8281C79.4755 41.1719 80 40.6473 80 40C80 39.3527 79.4755 38.8281 78.8281 38.8281Z" fill="#629ACC"/>
<path d="M44.5794 45.7256C43.932 45.7256 43.4075 45.2011 43.4075 44.5538V44.4072C43.4075 43.7599 43.932 43.2353 44.5794 43.2353C45.2267 43.2353 45.7513 43.7599 45.7513 44.4072V44.5538C45.7513 45.2009 45.2266 45.7256 44.5794 45.7256Z" fill="#E94141"/>
<path d="M35.4206 45.7256C34.7734 45.7256 34.2487 45.2011 34.2487 44.5538V44.4072C34.2487 43.7599 34.7734 43.2353 35.4206 43.2353C36.0678 43.2353 36.5925 43.7599 36.5925 44.4072V44.5538C36.5925 45.2009 36.0678 45.7256 35.4206 45.7256Z" fill="#0086F4"/>
<path d="M44.5794 36.7649C43.932 36.7649 43.4075 36.2403 43.4075 35.593V35.4464C43.4075 34.7991 43.932 34.2745 44.5794 34.2745C45.2267 34.2745 45.7513 34.7991 45.7513 35.4464V35.593C45.7513 36.2403 45.2266 36.7649 44.5794 36.7649Z" fill="#0086F4"/>
<path d="M35.4206 36.7649C34.7734 36.7649 34.2487 36.2403 34.2487 35.593V35.4464C34.2487 34.7991 34.7734 34.2745 35.4206 34.2745C36.0678 34.2745 36.5925 34.7991 36.5925 35.4464V35.593C36.5925 36.2403 36.0678 36.7649 35.4206 36.7649Z" fill="#E94141"/>
</svg>
