<svg width="75" height="75" viewBox="0 0 75 75" fill="none" xmlns="http://www.w3.org/2000/svg">
<path d="M27.9886 37.5L1.96976 11.4812C-0.656585 8.85481 -0.656585 4.5961 1.96976 1.96976C4.5961 -0.656586 8.8548 -0.656586 11.4811 1.96976L37.5 27.9886L63.5189 1.96976C66.1452 -0.656586 70.4039 -0.656586 73.0302 1.96976C75.6566 4.5961 75.6566 8.85481 73.0302 11.4812L47.0114 37.5L73.0302 63.5189C75.6566 66.1452 75.6566 70.4039 73.0302 73.0303C70.4039 75.6566 66.1452 75.6566 63.5189 73.0303L37.5 47.0114L11.4811 73.0303C8.8548 75.6566 4.5961 75.6566 1.96976 73.0303C-0.656585 70.4039 -0.656585 66.1452 1.96976 63.5189L27.9886 37.5Z" fill="#E94141"/>
</svg>
